<?xml version="1.0" standalone="no"?>
<!DOCTYPE svg PUBLIC "-//W3C//DTD SVG 20010904//EN"
 "http://www.w3.org/TR/2001/REC-SVG-20010904/DTD/svg10.dtd">
<svg version="1.0" xmlns="http://www.w3.org/2000/svg"
 width="1600.000000pt" height="1500.000000pt" viewBox="0 0 1600.000000 1500.000000"
 preserveAspectRatio="xMidYMid meet">

<g transform="translate(0.000000,1500.000000) scale(0.100000,-0.100000)"
fill="#000000" stroke="none">
<path d="M700 13695 c0 -13 12 -50 26 -82 14 -32 56 -134 94 -228 37 -93 102
-255 145 -360 42 -104 108 -266 145 -360 38 -93 122 -302 188 -464 l119 -293
114 -39 c63 -22 146 -48 184 -58 39 -11 104 -29 145 -41 41 -12 122 -33 180
-47 58 -13 115 -27 128 -30 12 -3 26 -13 31 -22 5 -9 55 -207 111 -441 56
-234 107 -430 113 -436 27 -25 513 -118 803 -152 82 -10 155 -22 162 -26 9 -5
12 -146 12 -577 l0 -569 -44 0 c-25 0 -48 -4 -51 -10 -4 -6 -150 -10 -406 -10
l-399 0 2 -507 3 -508 441 -3 441 -2 6 -68 c4 -37 7 -1208 7 -2602 l0 -2536
453 -809 c250 -446 494 -882 544 -970 51 -92 97 -161 106 -163 16 -3 17 244
19 3535 1 1946 2 3553 3 3571 1 18 4 35 7 37 6 7 6930 7 6936 0 3 -2 6 -19 7
-37 1 -18 2 -1625 3 -3571 2 -3291 3 -3538 19 -3535 9 2 55 71 106 163 50 88
294 524 544 970 l453 809 0 2536 c0 1394 3 2565 7 2602 l6 68 441 2 441 3 3
508 2 507 -399 0 c-256 0 -402 4 -406 10 -3 6 -26 10 -51 10 l-44 0 0 569 c0
431 3 572 12 577 7 4 80 16 162 26 290 34 775 127 803 152 6 6 55 191 107 411
53 220 101 416 106 435 9 32 15 37 57 47 198 47 267 64 333 83 41 12 107 30
145 41 39 10 121 36 184 58 l114 39 119 293 c66 162 150 371 188 464 37 94
103 256 145 360 43 105 108 267 145 360 38 94 80 196 94 228 32 72 34 107 5
107 -11 0 -59 -13 -107 -29 -48 -16 -121 -39 -162 -51 -41 -12 -113 -33 -160
-47 -47 -13 -116 -33 -155 -45 -38 -11 -115 -31 -170 -44 -55 -14 -134 -34
-175 -44 -41 -11 -122 -31 -180 -45 -58 -14 -141 -35 -185 -46 -119 -30 -285
-67 -420 -94 -66 -13 -165 -33 -220 -45 -327 -68 -453 -91 -730 -135 -82 -13
-204 -34 -270 -45 -241 -42 -249 -43 -665 -96 -311 -39 -483 -62 -515 -69 -16
-3 -129 -15 -250 -26 -301 -27 -594 -56 -630 -64 -28 -6 -167 -15 -892 -63
l-262 -17 -35 -34 c-20 -19 -36 -40 -36 -47 0 -6 16 -45 35 -87 19 -42 48
-120 63 -174 26 -93 27 -109 27 -318 0 -209 -1 -225 -27 -320 -39 -144 -148
-356 -240 -468 -158 -194 -423 -365 -648 -417 -30 -7 -76 -24 -102 -37 -52
-27 -38 -27 -295 0 -78 9 -161 21 -185 27 -187 48 -383 144 -501 245 -93 79
-211 206 -252 270 -61 95 -135 256 -161 348 -38 139 -31 130 -134 167 -113 41
-152 75 -170 150 -32 134 34 223 186 251 32 6 65 14 73 18 8 4 25 47 38 96 18
70 78 210 130 306 9 17 -58 23 -892 78 -165 11 -313 23 -330 26 -36 8 -329 37
-630 64 -121 11 -233 23 -250 26 -32 7 -204 30 -515 69 -416 53 -424 54 -665
96 -66 11 -187 32 -270 45 -277 44 -403 67 -730 135 -55 12 -154 32 -220 45
-135 27 -301 64 -420 94 -44 11 -127 32 -185 46 -58 14 -139 34 -180 45 -41
10 -120 30 -175 44 -55 13 -131 33 -170 44 -38 12 -108 32 -155 45 -47 14
-119 35 -160 47 -41 12 -114 35 -162 51 -109 36 -128 37 -128 4z m4085 -3270
c88 -9 189 -20 225 -26 36 -5 144 -14 240 -19 200 -10 411 -26 550 -40 176
-18 481 -42 583 -45 56 -2 208 -11 337 -20 129 -9 295 -18 368 -21 152 -4 368
-20 381 -28 12 -8 24 -532 16 -655 l-8 -101 -38 0 c-21 0 -41 -4 -44 -10 -10
-16 -2851 -14 -2862 3 -10 15 -17 793 -8 904 l7 82 46 -4 c26 -3 119 -12 207
-20z m6690 -57 c9 -112 2 -890 -8 -905 -11 -17 -2852 -19 -2862 -3 -3 6 -23
10 -44 10 l-38 0 -8 101 c-8 123 4 647 16 655 13 8 229 24 381 28 73 3 239 12
368 21 129 9 281 18 337 20 102 3 407 27 583 45 139 14 350 30 550 40 96 5
204 14 240 19 58 9 311 36 415 44 22 2 45 4 52 5 7 1 14 -27 18 -80z"/>
<path d="M9360 13289 c-192 -43 -531 -255 -759 -474 -93 -90 -188 -200 -248
-290 -93 -139 -246 -402 -355 -615 -33 -63 -61 -117 -63 -119 -2 -2 -50 24
-107 57 -148 86 -185 103 -358 166 -235 86 -384 119 -555 124 -109 3 -153 0
-195 -12 -79 -23 -86 -29 -75 -62 8 -22 26 -33 115 -65 195 -71 529 -248 680
-360 294 -217 395 -311 494 -460 122 -185 169 -249 181 -249 21 0 45 47 56
108 23 122 82 334 140 502 67 193 281 650 376 805 101 164 223 316 372 465
192 191 296 280 436 375 63 42 115 83 115 91 0 38 -112 44 -250 13z"/>
<path d="M7755 13124 c-154 -34 -337 -125 -461 -231 -144 -123 -263 -297 -325
-476 -42 -120 -41 -123 30 -130 33 -4 77 -9 98 -13 l39 -6 18 59 c70 225 246
425 469 533 137 65 229 85 387 84 139 -2 239 -23 346 -73 l62 -29 73 74 c61
61 71 76 59 85 -48 32 -161 82 -237 106 -81 24 -105 26 -288 29 -152 3 -217 0
-270 -12z"/>
<path d="M8930 12438 c-85 -110 -82 -101 -58 -214 75 -362 -114 -774 -434
-944 -33 -18 -61 -37 -62 -43 -2 -7 -13 -43 -24 -82 -32 -107 -37 -145 -20
-145 55 0 263 113 368 200 156 129 286 326 346 525 24 81 28 109 32 282 3 152
1 208 -12 273 -17 84 -64 220 -75 219 -3 0 -31 -32 -61 -71z"/>
<path d="M6970 11684 c11 -30 43 -101 72 -156 124 -238 358 -433 618 -516 92
-29 220 -52 220 -38 0 10 -119 188 -143 214 -11 12 -25 22 -31 22 -27 0 -197
97 -258 147 -67 55 -142 135 -188 203 -13 19 -31 41 -40 48 -14 12 -255 132
-264 132 -3 0 4 -25 14 -56z"/>
<path d="M6665 7886 c-84 -16 -208 -57 -273 -90 -56 -28 -179 -121 -242 -182
-67 -64 -112 -69 -615 -68 -400 1 -486 6 -652 40 l-32 6 9 -33 c17 -66 58
-585 47 -596 -3 -2 -32 3 -65 11 -67 18 -202 22 -202 6 0 -5 7 -10 16 -10 23
0 214 -88 244 -112 l25 -20 -2 -232 c-2 -127 -8 -266 -14 -309 -6 -43 -10 -80
-8 -82 2 -1 63 3 134 10 72 7 170 15 220 17 l90 3 60 -173 c45 -130 61 -167
66 -150 4 13 24 93 44 179 l37 156 120 7 c157 8 417 6 493 -3 33 -5 61 -7 63
-6 2 2 -5 43 -15 91 -16 78 -18 136 -16 457 3 375 16 574 48 683 17 60 77 121
198 203 119 80 228 128 332 146 50 8 104 15 122 15 17 0 34 4 38 9 20 33 -153
50 -270 27z m-1500 -471 c149 -22 493 -36 600 -25 50 5 112 10 138 10 l49 0
-36 -47 c-183 -240 -367 -594 -466 -897 l-22 -68 -45 83 c-73 138 -153 249
-239 335 l-81 81 -7 133 c-6 121 -29 332 -41 388 -7 27 7 28 150 7z m924 -127
c-43 -352 -48 -693 -13 -867 l7 -34 -244 8 c-134 4 -245 8 -247 10 -4 4 85
241 111 295 54 111 215 403 265 480 46 72 119 170 126 170 2 0 -1 -28 -5 -62z
m-971 -666 c59 -87 142 -219 142 -226 0 -2 -30 -6 -67 -9 -38 -3 -88 -9 -113
-13 l-46 -6 7 78 c4 44 8 121 8 172 1 50 3 92 6 92 2 0 31 -39 63 -88z"/>
<path d="M6415 7317 c-3 -6 -4 -199 -3 -427 l3 -415 528 -3 527 -2 0 430 0
430 -525 0 c-411 0 -527 -3 -530 -13z"/>
<path d="M7690 6900 l0 -430 1698 2 1697 3 3 428 2 427 -1700 0 -1700 0 0
-430z"/>
<path d="M6665 6056 c-84 -16 -208 -57 -273 -90 -56 -28 -179 -121 -242 -182
-67 -64 -112 -69 -615 -68 -400 1 -486 6 -652 40 l-32 6 9 -33 c17 -66 58
-585 47 -596 -3 -2 -32 3 -65 11 -67 18 -202 22 -202 6 0 -5 7 -10 16 -10 23
0 214 -88 244 -112 l25 -20 -2 -232 c-2 -127 -8 -266 -14 -309 -6 -43 -10 -80
-8 -82 2 -1 63 3 134 10 72 7 170 15 220 17 l90 3 60 -173 c45 -130 61 -167
66 -150 4 13 24 93 44 179 l37 156 120 7 c157 8 417 6 493 -3 33 -5 61 -7 63
-6 2 2 -5 43 -15 91 -16 78 -18 136 -16 457 3 375 16 574 48 683 17 60 77 121
198 203 119 80 228 128 332 146 50 8 104 15 122 15 17 0 34 4 38 9 20 33 -153
50 -270 27z m-1500 -471 c149 -22 493 -36 600 -25 50 5 112 10 138 10 l49 0
-36 -47 c-183 -240 -367 -594 -466 -897 l-22 -68 -45 83 c-73 138 -153 249
-239 335 l-81 81 -7 133 c-6 121 -29 332 -41 388 -7 27 7 28 150 7z m924 -127
c-43 -352 -48 -693 -13 -867 l7 -34 -244 8 c-134 4 -245 8 -247 10 -4 4 85
241 111 295 54 111 215 403 265 480 46 72 119 170 126 170 2 0 -1 -28 -5 -62z
m-971 -666 c59 -87 142 -219 142 -226 0 -2 -30 -6 -67 -9 -38 -3 -88 -9 -113
-13 l-46 -6 7 78 c4 44 8 121 8 172 1 50 3 92 6 92 2 0 31 -39 63 -88z"/>
<path d="M6415 5488 c-3 -13 -4 -205 -3 -428 l3 -405 1573 -3 1572 -2 0 430 0
430 -1570 0 -1570 0 -5 -22z"/>
<path d="M9780 5080 l0 -430 653 2 652 3 3 428 2 427 -655 0 -655 0 0 -430z"/>
<path d="M6665 4216 c-84 -16 -208 -57 -273 -90 -56 -28 -179 -121 -242 -182
-67 -64 -112 -69 -615 -68 -400 1 -486 6 -652 40 l-32 6 9 -33 c17 -66 58
-585 47 -596 -3 -2 -32 3 -65 11 -67 18 -202 22 -202 6 0 -5 7 -10 16 -10 23
0 214 -88 244 -112 l25 -20 -2 -232 c-2 -127 -8 -266 -14 -309 -6 -43 -10 -80
-8 -82 2 -1 63 3 134 10 72 7 170 15 220 17 l90 3 60 -173 c45 -130 61 -167
66 -150 4 13 24 93 44 179 l37 156 120 7 c157 8 417 6 493 -3 33 -5 61 -7 63
-6 2 2 -5 43 -15 91 -16 78 -18 136 -16 457 3 375 16 574 48 683 17 60 77 121
198 203 119 80 228 128 332 146 50 8 104 15 122 15 17 0 34 4 38 9 20 33 -153
50 -270 27z m-1500 -471 c149 -22 493 -36 600 -25 50 5 112 10 138 10 l49 0
-36 -47 c-183 -240 -367 -594 -466 -897 l-22 -68 -45 83 c-73 138 -153 249
-239 335 l-81 81 -7 133 c-6 121 -29 332 -41 388 -7 27 7 28 150 7z m924 -127
c-43 -352 -48 -693 -13 -867 l7 -34 -244 8 c-134 4 -245 8 -247 10 -4 4 85
241 111 295 54 111 215 403 265 480 46 72 119 170 126 170 2 0 -1 -28 -5 -62z
m-971 -666 c59 -87 142 -219 142 -226 0 -2 -30 -6 -67 -9 -38 -3 -88 -9 -113
-13 l-46 -6 7 78 c4 44 8 121 8 172 1 50 3 92 6 92 2 0 31 -39 63 -88z"/>
<path d="M6415 3628 c-3 -18 -4 -211 -3 -428 l3 -395 518 -3 517 -2 0 430 0
430 -515 0 -514 0 -6 -32z"/>
<path d="M7670 3230 l0 -430 945 0 945 0 0 430 0 430 -945 0 -945 0 0 -430z"/>
<path d="M9780 3230 l0 -430 653 2 652 3 3 428 2 427 -655 0 -655 0 0 -430z"/>
</g>
</svg>
